<?xml version="1.0" standalone="no"?>
<!DOCTYPE svg PUBLIC "-//W3C//DTD SVG 20010904//EN"
 "http://www.w3.org/TR/2001/REC-SVG-20010904/DTD/svg10.dtd">
<svg version="1.0" xmlns="http://www.w3.org/2000/svg"
 width="64.000000pt" height="64.000000pt" viewBox="0 0 64.000000 64.000000"
 preserveAspectRatio="xMidYMid meet">

<g transform="translate(0.000000,64.000000) scale(0.100000,-0.100000)"
fill="#000000" stroke="none">
<path d="M211 523 c-44 -36 -36 -132 14 -155 31 -14 74 3 82 32 3 11 9 20 13
20 4 0 10 -9 13 -20 3 -11 17 -25 32 -32 55 -25 104 34 91 108 -13 66 -95 84
-121 26 -11 -25 -25 -29 -25 -8 0 18 -38 46 -61 46 -9 0 -26 -8 -38 -17z m57
-35 c31 -31 0 -105 -33 -78 -25 21 -14 90 15 90 3 0 11 -5 18 -12z m140 0 c31
-31 0 -105 -33 -78 -25 21 -14 90 15 90 3 0 11 -5 18 -12z"/>
<path d="M109 381 c-20 -16 -24 -29 -24 -71 0 -42 4 -55 24 -71 29 -24 53 -24
82 0 20 16 24 29 24 71 0 42 -4 55 -24 71 -13 10 -31 19 -41 19 -10 0 -28 -9
-41 -19z m59 -33 c31 -31 0 -105 -33 -78 -25 21 -14 90 15 90 3 0 11 -5 18
-12z"/>
<path d="M449 381 c-20 -16 -24 -29 -24 -71 0 -42 4 -55 24 -71 29 -24 53 -24
82 0 20 16 24 29 24 71 0 42 -4 55 -24 71 -13 10 -31 19 -41 19 -10 0 -28 -9
-41 -19z m59 -33 c31 -31 0 -105 -33 -78 -25 21 -14 90 15 90 3 0 11 -5 18
-12z"/>
<path d="M275 295 c-14 -13 -25 -28 -25 -33 0 -5 -14 -15 -30 -22 -61 -25 -77
-80 -35 -120 24 -23 28 -23 80 -13 41 9 69 9 110 0 52 -10 56 -10 80 13 42 40
26 95 -35 120 -16 7 -30 17 -30 22 0 17 -49 58 -70 58 -11 0 -32 -11 -45 -25z
m85 -52 c20 -21 47 -45 60 -54 16 -11 21 -21 17 -33 -6 -15 -13 -17 -45 -10
-34 8 -70 8 -157 1 -24 -1 -31 2 -33 18 -2 15 7 25 33 38 20 9 44 31 53 47 9
16 21 30 26 30 5 0 26 -17 46 -37z"/>
</g>
</svg>
