<?xml version="1.0" standalone="no"?>
<!DOCTYPE svg PUBLIC "-//W3C//DTD SVG 20010904//EN"
 "http://www.w3.org/TR/2001/REC-SVG-20010904/DTD/svg10.dtd">
<svg version="1.0" xmlns="http://www.w3.org/2000/svg"
 width="25.000000pt" height="25.000000pt" viewBox="0 0 25.000000 25.000000"
 preserveAspectRatio="xMidYMid meet">

<g transform="translate(0.000000,25.000000) scale(0.100000,-0.100000)"
fill="#000000" stroke="none">
<path d="M59 191 c-21 -22 -29 -39 -29 -66 0 -51 44 -95 95 -95 51 0 95 44 95
95 0 51 -44 95 -95 95 -27 0 -44 -8 -66 -29z m126 -6 c34 -33 34 -87 0 -120
-53 -54 -145 -16 -145 60 0 49 36 85 85 85 25 0 44 -8 60 -25z"/>
<path d="M119 157 c-6 -44 -3 -47 31 -36 23 6 23 7 3 8 -17 1 -22 8 -25 34
l-3 32 -6 -38z"/>
</g>
</svg>
