<?xml version="1.0" standalone="no"?>
<!DOCTYPE svg PUBLIC "-//W3C//DTD SVG 20010904//EN"
 "http://www.w3.org/TR/2001/REC-SVG-20010904/DTD/svg10.dtd">
<svg version="1.0" xmlns="http://www.w3.org/2000/svg"
 width="50.000000pt" height="50.000000pt" viewBox="0 0 50.000000 50.000000"
 preserveAspectRatio="xMidYMid meet">

<g transform="translate(0.000000,50.000000) scale(0.100000,-0.100000)"
fill="#000000" stroke="none">
<path d="M100 452 c-56 -28 -70 -68 -70 -202 0 -192 28 -220 220 -220 192 0
220 28 220 220 0 134 -14 174 -70 202 -50 26 -250 26 -300 0z m286 -73 c10
-17 -13 -36 -27 -22 -12 12 -4 33 11 33 5 0 12 -5 16 -11z m-86 -34 c32 -17
60 -61 60 -95 0 -53 -57 -110 -110 -110 -53 0 -110 57 -110 110 0 33 28 78 58
94 35 20 66 20 102 1z"/>
<path d="M189 311 c-20 -20 -29 -39 -29 -61 0 -43 47 -90 90 -90 43 0 90 47
90 90 0 43 -47 90 -90 90 -22 0 -41 -9 -61 -29z"/>
</g>
</svg>
