<?xml version="1.0" standalone="no"?>
<!DOCTYPE svg PUBLIC "-//W3C//DTD SVG 20010904//EN"
 "http://www.w3.org/TR/2001/REC-SVG-20010904/DTD/svg10.dtd">
<svg version="1.0" xmlns="http://www.w3.org/2000/svg"
 width="25.000000pt" height="25.000000pt" viewBox="0 0 25.000000 25.000000"
 preserveAspectRatio="xMidYMid meet">

<g transform="translate(0.000000,25.000000) scale(0.100000,-0.100000)"
fill="#000000" stroke="none">
<path d="M0 120 l0 -90 125 0 125 0 0 90 0 90 -125 0 -125 0 0 -90z m240 0 l0
-80 -115 0 -115 0 0 80 0 80 115 0 115 0 0 -80z"/>
<path d="M23 172 c4 -6 28 -22 54 -37 l48 -26 40 22 c22 12 47 28 55 36 8 9
-10 1 -40 -15 l-54 -31 -55 31 c-30 17 -51 26 -48 20z"/>
</g>
</svg>
