<?xml version="1.0" standalone="no"?>
<!DOCTYPE svg PUBLIC "-//W3C//DTD SVG 20010904//EN"
 "http://www.w3.org/TR/2001/REC-SVG-20010904/DTD/svg10.dtd">
<svg version="1.0" xmlns="http://www.w3.org/2000/svg"
 width="25.000000pt" height="25.000000pt" viewBox="0 0 25.000000 25.000000"
 preserveAspectRatio="xMidYMid meet">

<g transform="translate(0.000000,25.000000) scale(0.100000,-0.100000)"
fill="#000000" stroke="none">
<path d="M75 225 c-32 -31 -31 -51 4 -127 17 -35 32 -71 35 -81 7 -21 26 -14
26 9 0 8 13 41 30 74 36 72 37 94 5 125 -31 32 -69 32 -100 0z m78 -37 c6 -18
-11 -48 -28 -48 -17 0 -34 30 -28 48 3 6 15 12 28 12 13 0 25 -6 28 -12z"/>
</g>
</svg>
