<?xml version="1.0" standalone="no"?>
<!DOCTYPE svg PUBLIC "-//W3C//DTD SVG 20010904//EN"
 "http://www.w3.org/TR/2001/REC-SVG-20010904/DTD/svg10.dtd">
<svg version="1.0" xmlns="http://www.w3.org/2000/svg"
 width="512.000000pt" height="512.000000pt" viewBox="0 0 512.000000 512.000000"
 preserveAspectRatio="xMidYMid meet">

<g transform="translate(0.000000,512.000000) scale(0.100000,-0.100000)"
fill="#000000" stroke="none">
<path d="M298 4686 c-61 -24 -97 -57 -126 -116 -26 -54 -27 -59 -25 -215 3
-171 17 -319 64 -675 40 -310 71 -404 181 -555 29 -38 74 -115 101 -169 76
-150 142 -212 325 -305 79 -40 145 -78 146 -84 2 -7 16 -64 31 -127 15 -63 45
-163 67 -223 41 -108 41 -108 72 -105 40 4 40 7 -23 188 -27 80 -57 181 -66
225 -9 44 -24 88 -33 98 -9 11 -77 49 -151 85 -177 87 -231 136 -302 275 -29
56 -78 138 -109 182 -111 154 -128 211 -175 563 -45 343 -55 454 -58 632 -2
174 10 210 83 248 147 75 495 -56 840 -316 162 -122 425 -412 489 -540 16 -32
41 -97 56 -147 28 -95 75 -193 105 -220 16 -14 21 -14 66 7 39 17 67 22 139
21 50 0 104 -3 122 -7 21 -6 49 -2 85 10 70 23 120 23 196 0 61 -19 66 -19
127 -3 93 25 169 22 234 -8 52 -25 56 -25 93 -10 56 22 121 19 206 -11 66 -22
80 -24 124 -14 28 6 66 8 84 4 67 -12 109 47 170 233 41 128 81 201 168 309
212 264 450 457 753 610 258 131 469 138 529 16 16 -32 19 -60 18 -209 l-1
-173 32 0 33 0 7 110 c13 201 -14 326 -83 377 -152 112 -448 42 -797 -190
-222 -148 -379 -291 -541 -492 -105 -131 -135 -185 -183 -332 -23 -67 -50
-138 -62 -157 -18 -30 -24 -34 -49 -30 -15 4 -51 1 -80 -5 -46 -10 -57 -9 -98
10 -58 26 -175 36 -226 19 -31 -10 -44 -9 -91 9 -68 26 -169 28 -245 5 -49
-15 -57 -14 -109 2 -69 22 -160 21 -224 -1 -38 -13 -55 -14 -79 -6 -45 16
-155 13 -223 -5 -58 -15 -61 -14 -77 5 -9 12 -35 79 -58 150 -47 147 -79 205
-187 340 -208 259 -481 479 -778 626 -174 86 -393 127 -487 91z"/>
<path d="M4385 4449 c-159 -88 -246 -152 -357 -258 -202 -193 -393 -466 -442
-630 -20 -68 -42 -379 -28 -393 31 -31 51 40 62 216 11 180 31 232 161 427
182 273 386 459 672 613 63 34 87 52 87 67 0 33 -39 22 -155 -42z"/>
<path d="M687 4453 c-17 -16 -1 -33 86 -92 116 -80 305 -269 375 -376 70 -107
165 -294 190 -377 27 -86 45 -251 33 -302 -7 -28 -27 -56 -78 -105 -66 -63
-70 -70 -96 -157 -23 -79 -31 -93 -52 -98 -34 -9 -34 -43 0 -52 43 -11 74 32
110 151 16 51 29 70 87 126 43 41 72 78 78 100 15 50 13 152 -4 251 -56 308
-319 689 -609 882 -81 54 -106 64 -120 49z"/>
<path d="M343 4364 c-10 -26 46 -390 73 -472 33 -99 61 -141 169 -252 51 -52
100 -110 109 -128 9 -18 25 -73 36 -122 23 -105 56 -176 110 -230 72 -72 149
-97 208 -66 38 20 202 190 202 210 0 9 -7 19 -16 23 -11 4 -45 -23 -112 -89
-54 -53 -105 -98 -115 -102 -43 -14 -149 69 -187 149 -11 23 -27 77 -35 120
-23 119 -43 153 -160 274 -144 150 -154 172 -202 466 -32 193 -41 230 -56 233
-9 2 -20 -4 -24 -14z"/>
<path d="M4880 4018 c-1 -53 -74 -570 -86 -608 -23 -78 -78 -182 -144 -275
-31 -44 -74 -116 -95 -160 -60 -126 -131 -189 -310 -276 -161 -78 -148 -62
-180 -214 -25 -115 -84 -279 -171 -477 -156 -353 -231 -478 -387 -644 -51 -55
-145 -134 -159 -134 -3 0 -11 41 -18 90 -14 98 -27 127 -54 117 -15 -6 -16
-14 -9 -54 4 -27 8 -97 7 -158 -1 -123 -19 -186 -78 -272 -38 -56 -131 -134
-196 -165 -58 -29 -201 -31 -270 -4 -91 34 -128 71 -145 146 -5 21 0 28 29 44
36 19 76 83 76 122 0 26 7 34 68 78 59 43 72 62 72 105 0 90 -149 128 -242 61
-15 -11 -30 -20 -33 -20 -3 0 -18 9 -33 20 -62 45 -178 44 -215 -1 -48 -59
-34 -107 48 -167 47 -34 65 -53 65 -70 0 -53 40 -110 105 -147 16 -10 16 -15
6 -46 -41 -125 -269 -186 -428 -114 -64 29 -180 143 -212 208 -13 27 -32 83
-42 124 -17 66 -18 87 -8 171 6 53 13 100 15 103 7 12 -8 39 -22 39 -7 0 -17
-8 -22 -17 -8 -15 -32 -163 -32 -195 0 -19 -95 60 -176 144 -110 116 -197 249
-293 450 l-79 164 -35 -4 -35 -4 18 -42 c61 -142 158 -327 218 -417 86 -128
213 -265 306 -331 67 -47 71 -52 83 -104 28 -121 109 -236 226 -321 29 -20 93
-76 144 -125 205 -196 346 -250 514 -198 99 30 174 82 299 204 63 62 131 123
151 134 91 54 197 211 217 318 6 36 17 48 92 106 161 122 295 297 418 543 146
294 252 566 290 745 l18 85 121 60 c66 33 146 79 177 103 67 51 137 142 177
230 16 35 56 100 89 146 66 91 120 199 144 291 12 46 86 567 86 608 0 6 -70
11 -70 5z m-2283 -3224 c67 -51 139 -76 240 -83 l95 -6 -53 -53 c-152 -150
-310 -197 -444 -133 -66 31 -162 100 -213 154 l-33 34 94 5 c99 5 162 27 237
81 19 15 37 26 39 27 2 0 19 -12 38 -26z"/>
<path d="M4651 3768 c-10 -24 -26 -68 -36 -98 -27 -85 -121 -268 -175 -340
-64 -85 -106 -125 -215 -200 -49 -35 -117 -87 -151 -116 -91 -80 -92 -80 -186
74 -61 102 -92 125 -165 119 -61 -4 -133 -46 -133 -77 0 -27 20 -25 82 6 80
40 122 18 182 -95 49 -94 80 -129 121 -137 39 -7 64 4 127 61 26 23 89 71 140
105 172 118 270 235 368 443 57 122 105 260 97 282 -11 28 -37 16 -56 -27z"/>
<path d="M2543 3003 c-10 -4 -13 -62 -13 -244 l0 -239 -61 0 c-57 0 -60 -1
-57 -22 3 -20 10 -23 61 -26 l57 -3 0 -103 c0 -83 3 -106 16 -117 30 -25 44
14 44 118 l0 93 43 0 c24 0 52 6 62 14 31 23 3 46 -55 46 l-47 0 -6 107 c-4
58 -7 163 -7 233 0 128 -7 154 -37 143z"/>
<path d="M1347 2733 c-16 -16 -4 -91 29 -181 64 -170 99 -239 152 -290 92 -90
246 -151 380 -152 51 0 56 -2 112 -55 41 -40 68 -58 94 -62 31 -5 36 -9 36
-33 0 -30 23 -56 40 -45 17 10 11 155 -10 245 -69 291 -294 512 -578 566 -76
14 -243 19 -255 7z m743 -485 c0 -9 -13 -26 -29 -37 -36 -26 -50 -27 -28 -3 9
10 22 33 28 51 9 24 14 29 20 19 5 -7 9 -21 9 -30z m39 -112 c14 -56 14 -96 1
-96 -6 0 -30 18 -53 40 l-42 40 35 30 c19 16 38 30 41 30 4 0 12 -20 18 -44z"/>
<path d="M3512 2709 c-193 -32 -365 -145 -477 -313 -65 -98 -99 -185 -120
-302 -19 -111 -19 -178 0 -194 21 -17 35 -3 35 36 0 31 3 34 28 34 33 0 52 12
113 74 45 44 49 46 105 46 127 0 274 56 366 138 94 85 237 430 198 477 -14 17
-157 19 -248 4z m-458 -492 c27 -54 22 -59 -17 -19 -19 20 -25 34 -20 50 7 27
7 27 37 -31z m-24 -83 l39 -26 -31 -38 c-59 -74 -85 -63 -67 29 6 33 13 61 16
61 2 0 21 -12 43 -26z"/>
</g>
</svg>
