<?xml version="1.0" standalone="no"?>
<!DOCTYPE svg PUBLIC "-//W3C//DTD SVG 20010904//EN"
 "http://www.w3.org/TR/2001/REC-SVG-20010904/DTD/svg10.dtd">
<svg version="1.0" xmlns="http://www.w3.org/2000/svg"
 width="64.000000pt" height="64.000000pt" viewBox="0 0 64.000000 64.000000"
 preserveAspectRatio="xMidYMid meet">

<g transform="translate(0.000000,64.000000) scale(0.100000,-0.100000)"
fill="#000000" stroke="none">
<path d="M199 513 c-67 -8 -74 -25 -74 -194 0 -201 -7 -194 195 -194 202 0
195 -7 195 195 0 195 4 191 -161 195 -66 2 -135 1 -155 -2z m241 -193 l0 -120
-120 0 -120 0 0 120 0 120 120 0 120 0 0 -120z"/>
<path d="M217 374 c-3 -4 3 -24 13 -45 31 -60 90 -90 104 -53 6 16 8 16 24 0
18 -16 62 -23 62 -9 0 3 -8 15 -17 25 -16 18 -16 21 0 47 15 27 16 29 1 35
-19 7 -41 -8 -49 -35 -8 -25 -25 -14 -25 17 0 18 -5 24 -23 24 -21 0 -23 -4
-20 -32 4 -31 3 -32 -11 -13 -36 47 -45 53 -59 39z"/>
</g>
</svg>
