<?xml version="1.0" standalone="no"?>
<!DOCTYPE svg PUBLIC "-//W3C//DTD SVG 20010904//EN"
 "http://www.w3.org/TR/2001/REC-SVG-20010904/DTD/svg10.dtd">
<svg version="1.0" xmlns="http://www.w3.org/2000/svg"
 width="128.000000pt" height="128.000000pt" viewBox="0 0 64.000000 64.000000"
 preserveAspectRatio="xMidYMid meet">

<g transform="translate(0.000000,100.000000) scale(0.100000,-0.100000)"
fill="#000000" stroke="none">
<path d="M22 577 c-28 -30 -28 -68 1 -95 23 -21 30 -22 298 -22 275 0 276 0
297 23 28 30 28 68 -1 95 -23 21 -30 22 -298 22 -275 0 -276 0 -297 -23z m78
-47 c0 -46 -2 -50 -24 -50 -29 0 -56 24 -56 50 0 26 27 50 56 50 22 0 24 -4
24 -50z m420 0 l0 -50 -200 0 -200 0 0 50 0 50 200 0 200 0 0 -50z m84 34 c33
-32 8 -84 -40 -84 -22 0 -24 4 -24 50 0 46 2 50 24 50 14 0 32 -7 40 -16z"/>
<path d="M160 510 c0 -6 60 -10 160 -10 100 0 160 4 160 10 0 6 -60 10 -160
10 -100 0 -160 -4 -160 -10z"/>
<path d="M200 395 c-13 -14 -20 -28 -17 -32 8 -7 57 35 57 49 0 15 -16 8 -40
-17z"/>
<path d="M300 380 c0 -22 5 -40 10 -40 6 0 10 18 10 40 0 22 -4 40 -10 40 -5
0 -10 -18 -10 -40z"/>
<path d="M380 412 c0 -14 49 -56 57 -49 3 4 -4 18 -17 32 -24 25 -40 32 -40
17z"/>
<path d="M128 231 c-16 -13 -29 -17 -39 -10 -34 21 -45 11 -45 -41 0 -50 8
-64 20 -34 3 9 6 27 6 41 0 21 2 23 15 13 12 -10 21 -8 48 9 44 27 60 26 94
-4 l28 -25 -28 -25 c-34 -31 -50 -31 -94 -4 -26 16 -37 19 -46 10 -8 -8 -8
-11 2 -11 7 0 24 -9 38 -20 39 -30 77 -26 121 15 l37 35 -37 35 c-43 40 -82
45 -120 16z"/>
<path d="M370 230 c0 -5 5 -10 10 -10 6 0 10 5 10 10 0 6 -4 10 -10 10 -5 0
-10 -4 -10 -10z"/>
<path d="M330 200 c0 -5 5 -10 10 -10 6 0 10 5 10 10 0 6 -4 10 -10 10 -5 0
-10 -4 -10 -10z"/>
<path d="M193 177 c-25 -11 -31 -27 -9 -27 14 0 42 28 35 34 -2 2 -14 -1 -26
-7z"/>
<path d="M392 145 l-37 -35 37 -35 c44 -41 82 -45 122 -14 20 16 30 19 39 10
6 -6 18 -11 27 -11 13 0 16 11 16 50 0 52 -11 62 -45 41 -10 -7 -23 -3 -39 10
-38 29 -77 24 -120 -16z m115 -6 c27 -17 36 -19 48 -9 13 11 15 7 15 -20 0
-27 -2 -31 -15 -20 -12 10 -21 8 -48 -9 -44 -27 -60 -26 -94 4 l-28 25 28 25
c34 30 50 31 94 4z"/>
<path d="M420 112 c0 -12 23 -32 37 -32 22 0 15 16 -12 28 -14 6 -25 8 -25 4z"/>
<path d="M350 160 c0 -5 5 -10 10 -10 6 0 10 5 10 10 0 6 -4 10 -10 10 -5 0
-10 -4 -10 -10z"/>
</g>
</svg>
