<?xml version="1.0" standalone="no"?>
<!DOCTYPE svg PUBLIC "-//W3C//DTD SVG 20010904//EN"
 "http://www.w3.org/TR/2001/REC-SVG-20010904/DTD/svg10.dtd">
<svg version="1.0" xmlns="http://www.w3.org/2000/svg"
 width="100.000000pt" height="100.000000pt" viewBox="0 0 512.000000 512.000000"
 preserveAspectRatio="xMidYMid meet">

<linearGradient id="linear-gradient">
  <stop offset="0%" stop-color="pink"/>
  <stop offset="100%" stop-color="#d587b3"/>
</linearGradient>

<g transform="translate(0.000000,512.000000) scale(0.100000,-0.100000)"
fill="url(#linear-gradient)" stroke="none">
<path d="M1783 4854 c-25 -25 -25 -26 -21 -167 3 -134 5 -146 35 -209 42 -90
100 -150 186 -193 38 -19 75 -35 82 -35 15 0 25 -31 25 -78 0 -41 -27 -53
-117 -53 -107 0 -155 41 -198 171 -28 86 -50 110 -98 110 -34 0 -77 -40 -77
-73 0 -29 55 -182 81 -224 77 -124 248 -175 431 -128 22 6 27 3 33 -17 4 -12
25 -59 47 -103 140 -280 388 -473 708 -552 53 -13 157 -17 572 -22 493 -6 507
-7 535 -27 49 -37 73 -82 73 -139 0 -67 -29 -112 -90 -142 -41 -19 -84 -23
-515 -47 -258 -15 -485 -29 -503 -32 -30 -5 -38 1 -91 54 -67 68 -124 104
-220 140 -56 21 -88 26 -218 30 l-152 4 -27 -27 c-26 -26 -27 -30 -21 -100 14
-160 96 -308 227 -408 l35 -27 -35 -27 c-118 -90 -200 -226 -224 -373 l-6 -35
-108 -23 c-289 -62 -704 -244 -933 -409 l-46 -33 -52 69 c-115 156 -283 268
-481 323 -56 15 -117 21 -242 25 l-166 6 -28 -28 c-26 -26 -27 -29 -21 -113
16 -222 107 -417 267 -572 42 -41 111 -95 153 -120 42 -25 76 -47 76 -50 0 -3
-34 -25 -76 -50 -42 -25 -111 -79 -153 -120 -160 -155 -251 -350 -267 -572 -6
-84 -5 -87 21 -113 l28 -28 166 6 c123 3 186 10 237 24 206 58 369 167 486
323 l50 68 97 -65 c114 -76 416 -227 553 -277 431 -158 824 -191 1424 -120
535 62 1020 246 1378 521 161 124 357 344 357 401 0 38 -54 114 -156 222 -202
212 -470 384 -800 514 -151 59 -374 126 -506 151 -118 22 -384 54 -515 62
l-111 6 48 63 c27 35 51 72 55 84 6 20 11 20 520 20 641 0 724 10 930 110 237
114 388 289 475 550 114 340 59 727 -143 996 -53 70 -183 196 -247 241 -63 43
-183 102 -265 130 -153 52 -177 53 -1184 53 -704 0 -944 3 -975 12 -55 16
-138 99 -154 154 -7 23 -12 92 -12 153 0 105 -1 113 -25 136 -32 33 -78 33
-112 -1z m2262 -628 c50 -8 110 -21 135 -28 40 -12 45 -18 48 -45 5 -50 -35
-198 -77 -289 -57 -121 -133 -226 -239 -331 l-93 -93 -245 0 -246 0 22 33 c39
58 90 175 90 207 0 59 -67 98 -120 70 -11 -6 -40 -53 -65 -105 -31 -65 -61
-111 -99 -149 l-54 -55 -53 5 c-224 24 -409 113 -560 270 -80 84 -121 143
-165 239 -33 71 -74 216 -74 263 l0 22 853 0 c685 0 870 -3 942 -14z m405
-171 c62 -46 155 -145 204 -219 72 -108 136 -295 136 -396 0 -39 -5 -51 -32
-77 -113 -105 -289 -172 -459 -173 l-56 0 -18 48 c-20 51 -131 172 -159 172
-27 0 -19 16 41 82 76 85 158 213 204 317 36 82 79 225 79 263 0 25 5 23 60
-17z m305 -989 c-62 -215 -191 -383 -364 -475 -53 -27 -58 -28 -94 -16 -88 30
-158 104 -193 202 l-18 52 43 37 c47 40 86 97 97 139 6 24 10 26 43 22 130
-16 384 50 486 127 11 8 21 11 23 7 1 -4 -9 -47 -23 -95z m-2216 -117 c35 -5
88 -21 116 -35 60 -30 138 -101 128 -118 -3 -6 -14 -22 -24 -36 -9 -14 -22
-44 -29 -66 -12 -40 -14 -41 -41 -34 -123 36 -234 146 -269 270 -8 29 -7 30
23 30 18 0 61 -5 96 -11z m1395 -190 c11 -55 65 -156 111 -207 31 -35 42 -53
34 -58 -7 -4 -127 -9 -266 -12 l-254 -5 -41 39 c-54 52 -88 125 -88 192 l0 52
38 1 c31 1 392 23 443 28 11 1 19 -10 23 -30z m-671 -80 c4 -48 16 -91 36
-135 l30 -64 -166 0 c-148 0 -172 2 -209 21 -82 39 -94 144 -23 204 17 14 34
26 37 26 9 2 206 15 253 17 l36 2 6 -71z m-476 -258 l42 -48 -19 -30 c-29 -48
-97 -108 -154 -136 -56 -28 -164 -50 -214 -45 l-31 3 19 54 c36 101 130 194
231 231 30 11 61 19 69 20 8 0 34 -22 57 -49z m323 -446 c219 -22 387 -50 520
-87 63 -17 117 -32 119 -34 2 -2 -15 -52 -37 -111 -147 -393 -147 -693 0
-1086 22 -59 39 -109 37 -111 -14 -12 -256 -69 -359 -85 -317 -50 -718 -72
-930 -52 -359 34 -738 163 -1070 365 -122 74 -182 133 -226 222 -69 139 -69
269 0 408 44 89 104 148 226 222 319 193 706 329 1037 364 120 12 494 4 683
-15z m-2601 -66 c199 -32 377 -145 486 -310 l46 -69 -31 -65 c-17 -36 -36 -90
-43 -120 -14 -67 -20 -68 -146 -26 -119 40 -203 91 -287 175 -94 94 -159 209
-193 341 -21 80 -18 85 47 85 31 0 86 -5 121 -11z m3642 -219 c223 -111 386
-228 532 -379 53 -56 97 -106 97 -111 0 -5 -44 -55 -97 -111 -96 -100 -218
-198 -344 -276 -77 -48 -279 -151 -367 -186 l-62 -25 -21 46 c-35 78 -87 245
-106 339 -23 116 -23 309 0 425 18 90 71 260 107 340 l20 46 62 -25 c34 -14
115 -51 179 -83z m-3184 -635 c7 -30 26 -84 43 -120 l31 -65 -46 -69 c-132
-199 -362 -321 -607 -321 -67 0 -68 3 -43 99 65 252 264 449 525 520 76 20 85
17 97 -44z"/>
<path d="M2665 4055 c-16 -15 -25 -36 -25 -55 0 -19 9 -40 25 -55 15 -16 36
-25 55 -25 19 0 40 9 55 25 16 15 25 36 25 55 0 19 -9 40 -25 55 -15 16 -36
25 -55 25 -19 0 -40 -9 -55 -25z"/>
<path d="M2213 1820 c-41 -37 -95 -220 -119 -400 -26 -200 -13 -439 36 -628
43 -170 77 -232 127 -232 12 0 166 52 340 115 397 144 397 143 326 271 -44 81
-63 155 -63 254 0 99 19 173 63 254 71 128 71 127 -326 271 -175 63 -328 115
-341 115 -12 0 -32 -9 -43 -20z m323 -246 c115 -42 211 -78 213 -80 3 -2 -6
-39 -20 -82 -21 -67 -24 -95 -23 -222 0 -123 4 -154 22 -204 12 -33 22 -64 22
-71 0 -16 -429 -171 -439 -159 -13 13 -49 179 -56 254 -3 36 -8 75 -11 88 -4
21 -1 22 51 22 46 0 60 4 80 25 33 32 33 78 0 110 -20 21 -34 25 -80 25 -52 0
-55 1 -51 23 3 12 8 51 11 87 6 60 42 235 52 253 7 12 11 10 229 -69z"/>
<path d="M4265 1335 c-50 -49 -15 -135 55 -135 41 0 80 39 80 80 0 41 -39 80
-80 80 -19 0 -40 -9 -55 -25z"/>
<path d="M960 3665 c-111 -20 -174 -41 -285 -96 -173 -84 -344 -230 -446 -380
-69 -101 -83 -177 -53 -278 23 -77 73 -125 239 -226 l145 -89 0 -114 c0 -147
11 -184 75 -247 79 -80 150 -93 270 -49 107 39 166 54 215 54 49 0 108 -15
215 -54 120 -44 191 -31 270 49 64 63 75 100 75 246 l0 114 145 89 c165 101
216 150 239 227 30 101 16 177 -53 278 -144 211 -403 394 -646 457 -124 32
-295 40 -405 19z m345 -172 c173 -40 321 -127 466 -273 118 -119 158 -190 141
-249 -15 -49 -31 -62 -198 -165 -109 -67 -149 -86 -177 -86 -21 0 -37 2 -37 4
0 3 23 51 50 107 28 56 50 115 50 131 0 38 -40 78 -78 78 -48 0 -74 -31 -147
-179 l-69 -141 -53 0 -53 0 0 175 c0 173 0 176 -25 200 -15 16 -36 25 -55 25
-19 0 -40 -9 -55 -25 -25 -24 -25 -27 -25 -200 l0 -175 -53 0 -53 0 -64 132
c-81 164 -100 188 -148 188 -47 0 -82 -32 -82 -75 0 -18 22 -77 50 -134 28
-56 50 -104 50 -107 0 -2 -16 -4 -37 -4 -28 0 -68 19 -177 86 -167 103 -183
116 -198 165 -17 59 23 130 141 249 173 175 357 268 581 294 57 6 180 -4 255
-21z m213 -1027 c-6 -149 -34 -163 -198 -100 -68 26 -86 29 -200 29 -114 0
-132 -3 -200 -29 -164 -63 -192 -49 -198 100 l-4 94 402 0 402 0 -4 -94z"/>
</g>
</svg>
