<?xml version="1.0" standalone="no"?>
<!DOCTYPE svg PUBLIC "-//W3C//DTD SVG 20010904//EN"
 "http://www.w3.org/TR/2001/REC-SVG-20010904/DTD/svg10.dtd">
<svg version="1.0" xmlns="http://www.w3.org/2000/svg"
 width="128.000000pt" height="128.000000pt" viewBox="0 0 128.000000 128.000000"
 preserveAspectRatio="xMidYMid meet">

<g transform="translate(0.000000,128.000000) scale(0.100000,-0.100000)"
fill="SaddleBrown" stroke="none">
<path d="M397 1003 c-14 -14 -6 -84 15 -124 l21 -41 -22 -61 c-31 -91 -28
-118 27 -211 42 -73 47 -87 47 -141 -1 -89 -10 -115 -41 -115 -19 0 -25 -5
-22 -18 2 -13 15 -18 61 -20 52 -3 58 -1 68 22 8 17 8 33 1 55 -12 34 -5 74
12 68 6 -2 21 -23 32 -48 21 -43 21 -44 3 -51 -11 -4 -19 -17 -19 -28 0 -19 6
-20 115 -20 131 0 165 11 185 60 19 46 7 141 -24 194 -38 65 -134 148 -199
173 -51 20 -137 90 -137 112 0 5 16 23 36 40 82 72 79 174 -3 108 -39 -31 -77
-25 -103 19 -21 32 -39 42 -53 27z m52 -63 c0 -10 -2 -11 -6 -2 -2 6 -9 12
-15 12 -6 0 -5 -6 2 -15 9 -11 22 -14 42 -10 18 4 37 1 51 -8 22 -14 47 -13
47 4 0 4 -8 6 -17 3 -11 -4 -7 5 12 21 17 16 31 23 33 16 5 -16 -18 -81 -29
-81 -5 0 -25 -17 -45 -37 -30 -32 -35 -34 -31 -15 4 17 1 22 -14 22 -12 0 -16
-5 -13 -15 11 -26 -11 -16 -23 12 -17 35 -16 48 1 34 10 -8 16 -9 21 -1 4 6
-6 15 -24 21 -23 8 -32 19 -37 44 -9 48 4 64 27 34 10 -13 18 -31 18 -39z m11
-152 c0 -5 -10 -24 -22 -40 -12 -17 -16 -29 -9 -27 7 3 20 18 29 34 25 44 52
60 52 30 0 -8 6 -15 14 -15 8 0 25 -13 38 -29 13 -16 57 -44 98 -63 122 -56
220 -180 220 -278 0 -84 -49 -127 -133 -116 -65 9 -103 30 -127 69 -60 98 28
183 135 132 29 -14 28 -14 -27 -9 -75 8 -108 -11 -108 -60 0 -27 8 -41 40 -70
34 -31 47 -36 88 -36 28 0 56 6 68 15 18 15 18 15 -9 9 -33 -8 -57 10 -57 42
0 13 -4 24 -10 24 -14 0 -12 -20 4 -52 l15 -28 -25 16 c-17 12 -24 26 -24 48
-1 27 -2 29 -11 12 -8 -13 -8 -25 0 -42 12 -27 0 -32 -20 -8 -10 12 -10 22 -1
47 16 41 6 49 -11 8 -12 -28 -15 -30 -26 -17 -17 21 -6 62 20 76 15 8 34 8 70
1 73 -16 96 5 39 34 -72 37 -180 6 -180 -52 0 -21 -3 -23 -14 -14 -13 11 -13
18 -1 51 8 22 23 52 34 67 11 15 23 42 26 58 4 24 1 21 -16 -15 -21 -43 -22
-44 -29 -20 l-8 25 -1 -28 c-1 -16 -20 -84 -43 -153 -35 -102 -47 -126 -65
-130 -12 -3 -28 -2 -35 2 -9 6 -4 10 17 14 29 5 30 7 47 102 16 95 16 99 -3
150 -19 51 -20 38 -4 -38 6 -26 5 -27 -6 -9 -6 11 -29 50 -51 88 -44 74 -47
103 -14 180 15 34 36 43 36 15z m71 -501 c-18 -18 -22 -2 -9 34 l13 34 3 -29
c2 -16 -1 -33 -7 -39z m134 3 c4 -6 -10 -10 -34 -10 -23 0 -41 5 -41 10 0 6
15 10 34 10 19 0 38 -4 41 -10z"/>
<path d="M515 879 c-4 -6 -5 -13 -2 -16 7 -7 27 6 27 18 0 12 -17 12 -25 -2z"/>
<path d="M480 760 c-6 -12 -9 -24 -7 -27 3 -2 11 5 17 17 6 12 9 24 7 27 -3 2
-11 -5 -17 -17z"/>
<path d="M625 540 c-16 -17 -24 -30 -19 -30 13 0 59 48 52 55 -2 3 -17 -9 -33
-25z"/>
</g>
</svg>
