<?xml version="1.0" standalone="no"?>
<!DOCTYPE svg PUBLIC "-//W3C//DTD SVG 20010904//EN"
 "http://www.w3.org/TR/2001/REC-SVG-20010904/DTD/svg10.dtd">
<svg version="1.0" xmlns="http://www.w3.org/2000/svg"
 width="100.000000pt" height="100.000000pt" viewBox="0 0 512.000000 512.000000"
 preserveAspectRatio="xMidYMid meet">

<g transform="translate(0.000000,570.000000) scale(0.100000,-0.100000)"
fill="SaddleBrown" stroke="none" >
<path d="M2561 4620 c-47 -11 -104 -27 -128 -36 -84 -32 -148 -134 -217 -347
-19 -56 -50 -142 -70 -191 -64 -157 -45 -203 80 -193 63 5 64 4 58 -17 -40
-123 -42 -177 -14 -269 l20 -66 -45 -126 c-114 -314 -144 -365 -345 -585 -240
-262 -363 -454 -432 -669 -19 -61 -34 -86 -83 -140 -178 -196 -305 -402 -350
-566 -22 -85 -30 -270 -16 -395 24 -210 83 -418 132 -471 l27 -29 512 0 c333
0 518 4 531 10 11 6 19 21 19 35 l0 25 189 0 c189 0 190 0 193 -22 l3 -23 420
0 420 0 3 23 c7 49 -28 132 -74 178 -25 24 -52 44 -59 44 -17 0 -20 11 -39
125 -46 270 -43 389 15 655 47 218 61 257 128 359 133 203 204 409 243 701 18
140 15 478 -6 640 l-17 135 29 65 c49 109 65 188 53 273 -6 41 -13 81 -17 90
-5 14 1 17 38 17 100 0 110 47 44 214 -24 61 -56 149 -71 196 -40 126 -101
244 -145 284 -43 39 -121 67 -242 86 -71 12 -82 11 -150 -10 -103 -32 -325
-37 -405 -9 -84 28 -138 31 -232 9z m212 -70 c90 -28 334 -27 416 1 66 23 107
24 202 4 97 -21 151 -46 178 -84 33 -46 86 -166 111 -251 13 -41 43 -124 67
-184 49 -119 48 -128 -16 -119 -69 9 -128 34 -160 65 -18 18 -65 96 -103 173
-39 77 -84 159 -100 183 -38 55 -84 85 -110 71 -28 -15 -22 -38 22 -78 37 -32
46 -51 89 -181 60 -177 91 -250 131 -300 48 -60 170 -109 156 -62 -3 9 -8 31
-11 47 l-5 30 15 -33 c9 -19 18 -68 22 -110 5 -66 2 -88 -21 -155 -35 -104
-79 -189 -122 -237 -39 -42 -42 -73 -8 -78 14 -2 31 8 48 29 15 17 29 30 31
28 11 -12 25 -222 25 -381 0 -349 -52 -607 -166 -829 -46 -89 -82 -144 -69
-104 46 137 61 319 29 346 -11 9 -21 10 -31 3 -12 -7 -16 -32 -18 -109 -2
-117 -33 -222 -111 -376 -74 -149 -119 -212 -213 -302 -84 -79 -201 -167 -224
-167 -7 0 -7 89 -1 287 15 479 6 639 -38 667 -13 8 -21 7 -32 -4 -12 -13 -12
-24 0 -80 12 -53 14 -112 7 -330 -12 -385 -9 -550 11 -650 24 -122 125 -530
136 -550 5 -10 23 -20 40 -24 39 -7 82 -37 104 -71 l16 -25 -190 0 -190 0 0
31 c0 76 -48 257 -145 544 -129 383 -153 480 -165 690 -8 131 -16 183 -44 290
-58 216 -100 325 -126 325 -4 0 -15 -7 -24 -15 -13 -13 -10 -28 25 -132 21
-64 39 -132 39 -149 0 -83 -59 -290 -108 -378 -40 -72 -48 -75 -114 -32 -61
39 -77 43 -96 24 -23 -23 -12 -36 72 -92 305 -203 312 -454 21 -741 -109 -107
-194 -168 -248 -176 -23 -4 -43 -5 -45 -4 -1 1 28 20 65 41 37 21 102 73 144
114 179 177 208 381 82 578 -88 138 -247 241 -387 250 -57 3 -90 0 -143 -16
-85 -27 -200 -94 -278 -164 l-59 -53 33 60 c61 110 155 235 263 351 36 38 53
67 69 120 27 88 97 237 150 323 63 100 153 212 299 372 73 79 150 174 171 210
47 78 110 219 154 343 l32 88 27 -46 c15 -25 45 -65 66 -87 33 -35 42 -40 55
-29 23 19 19 36 -25 94 -79 104 -146 288 -134 364 8 51 11 54 67 81 80 39 125
116 206 358 45 134 54 152 91 185 48 43 50 71 7 76 -46 5 -95 -57 -185 -235
-84 -166 -113 -205 -172 -229 -56 -24 -139 -39 -151 -27 -7 7 2 42 30 109 22
55 56 149 76 209 41 127 99 239 138 269 32 24 184 65 243 65 23 1 71 -8 107
-19z m174 -3247 c-11 -112 -2 -389 16 -470 7 -35 10 -63 6 -63 -5 0 -106 395
-134 525 -3 16 9 28 58 57 34 20 62 37 62 38 1 0 -3 -39 -8 -87z m-427 -251
c39 -118 69 -216 67 -219 -3 -2 -22 0 -43 6 -72 18 -146 23 -229 16 -93 -7
-126 -23 -110 -51 9 -14 32 -17 160 -19 135 -1 197 -10 232 -33 6 -4 14 -28
18 -54 l7 -48 -200 0 c-192 0 -201 1 -207 20 -22 70 -105 119 -212 127 l-75 6
34 26 c64 49 161 146 209 210 41 53 58 67 99 81 65 22 119 66 145 117 11 23
23 38 27 34 3 -3 39 -102 78 -219z m-440 -338 c43 -17 74 -53 85 -97 l7 -27
-66 0 c-62 0 -66 1 -72 26 -4 14 -22 46 -40 70 l-34 44 40 0 c22 0 58 -7 80
-16z"/>
<path d="M2720 4190 c-26 -26 -26 -81 -2 -103 29 -26 77 -22 101 9 27 35 26
59 -4 89 -29 30 -68 32 -95 5z"/>
<path d="M3162 4193 c-52 -44 -24 -123 43 -123 43 0 79 41 70 80 -7 32 -40 60
-70 60 -13 0 -32 -8 -43 -17z"/>
<path d="M2874 3971 c-47 -22 -74 -54 -74 -91 0 -19 14 -36 54 -68 30 -23 62
-45 71 -48 32 -13 12 -47 -44 -75 -102 -51 -129 -44 -266 70 -55 45 -69 49
-84 24 -13 -23 1 -46 42 -72 30 -18 35 -28 40 -71 9 -72 52 -147 110 -188 47
-34 47 -34 47 -91 0 -134 56 -218 163 -241 88 -20 159 10 204 88 21 36 28 62
31 127 l4 83 44 30 c65 47 114 136 114 212 0 17 11 32 36 49 44 31 60 57 43
77 -17 21 -32 17 -70 -16 -19 -17 -63 -50 -99 -75 -63 -43 -66 -45 -105 -34
-66 19 -135 58 -135 77 0 10 15 25 33 35 43 23 107 83 107 99 0 7 -9 28 -20
46 -40 66 -161 92 -246 53z m177 -67 c24 -21 24 -26 0 -41 -16 -10 -18 -9 -14
8 4 15 -4 23 -38 40 l-44 20 39 -5 c21 -3 47 -13 57 -22z"/>
</g>
</svg>
