<?xml version="1.0" standalone="no"?>
<!DOCTYPE svg PUBLIC "-//W3C//DTD SVG 20010904//EN"
 "http://www.w3.org/TR/2001/REC-SVG-20010904/DTD/svg10.dtd">
<svg version="1.0" xmlns="http://www.w3.org/2000/svg"
 width="96.000000pt" height="96.000000pt" viewBox="0 0 96.000000 96.000000"
 preserveAspectRatio="xMidYMid meet">

 <linearGradient id="linear-gradient" >
  <stop offset="0%" stop-color="white" />
  <stop offset="100%"  stop-color="gray" />
</linearGradient>


<g transform="translate(0.000000,96.000000) scale(0.100000,-0.100000)"
fill="url(#linear-gradient)" stroke="none">
<path d="M135 936 c-60 -28 -87 -56 -114 -116 -46 -102 -3 -237 92 -286 l28
-15 -30 -35 c-17 -19 -38 -48 -47 -65 -20 -40 -29 -124 -16 -169 8 -32 6 -38
-21 -67 -47 -51 -12 -90 38 -43 19 18 23 19 35 6 10 -13 6 -23 -24 -58 -40
-47 -44 -81 -10 -86 16 -2 28 7 43 31 35 57 43 60 96 43 25 -9 74 -16 108 -16
53 0 65 -4 86 -25 42 -45 120 -45 163 0 20 21 32 25 85 25 34 0 83 7 108 16
53 17 61 14 96 -43 15 -24 27 -33 43 -31 34 5 30 39 -10 86 -30 35 -34 45 -24
58 12 13 16 12 35 -6 50 -47 85 -8 38 43 -24 26 -29 37 -23 57 23 75 0 173
-55 237 l-34 40 44 31 c83 59 116 176 76 268 -29 64 -55 92 -116 120 -110 52
-241 9 -296 -98 -16 -31 -25 -38 -49 -38 -24 0 -33 7 -49 38 -25 48 -55 76
-111 101 -60 27 -123 26 -185 -3z m183 -326 c19 -23 56 -52 84 -66 52 -26 61
-41 72 -116 13 -87 77 -148 156 -148 19 0 69 9 110 20 41 11 86 20 99 20 22 0
23 -3 18 -36 -3 -20 -7 -38 -9 -39 -2 -2 -26 1 -54 7 -87 17 -203 -17 -188
-56 3 -8 30 -22 61 -33 30 -10 56 -22 57 -28 0 -6 -34 -12 -80 -15 -69 -4 -85
-9 -113 -32 -41 -35 -59 -35 -106 2 -33 26 -46 30 -104 30 -109 0 -115 22 -15
49 78 21 62 62 -33 81 -40 9 -71 9 -107 2 -28 -6 -53 -9 -54 -7 -2 2 -6 21 -9
42 -8 59 12 116 56 159 22 21 42 51 45 68 6 32 62 136 73 136 3 0 22 -18 41
-40z m382 -150 c11 -11 20 -29 20 -40 0 -26 -34 -60 -60 -60 -11 0 -29 9 -40
20 -11 11 -20 29 -20 40 0 11 9 29 20 40 11 11 29 20 40 20 11 0 29 -9 40 -20z
m-514 -275 c-10 -8 -23 -12 -29 -8 -11 7 12 23 33 23 12 -1 11 -4 -4 -15z
m608 6 c11 -4 15 -10 9 -14 -5 -3 -19 0 -29 8 -20 15 -11 18 20 6z"/>
<path d="M260 460 c-11 -11 -20 -29 -20 -40 0 -26 34 -60 60 -60 26 0 60 34
60 60 0 11 -9 29 -20 40 -11 11 -29 20 -40 20 -11 0 -29 -9 -40 -20z"/>
<path d="M420 237 c-19 -10 -24 -20 -23 -42 3 -38 33 -77 67 -89 34 -13 76 17
95 68 13 33 12 39 -2 53 -21 21 -105 28 -137 10z"/>
</g>
</svg>
