<?xml version="1.0" standalone="no"?>
<!DOCTYPE svg PUBLIC "-//W3C//DTD SVG 20010904//EN"
 "http://www.w3.org/TR/2001/REC-SVG-20010904/DTD/svg10.dtd">
<svg version="1.0" xmlns="http://www.w3.org/2000/svg"
 width="128.000000pt" height="128.000000pt" viewBox="0 0 277.000000 330.000000"
 preserveAspectRatio="xMidYMid meet">

<linearGradient id="linear-gradient">
  <stop offset="0%" stop-color="gold"/>
  <stop offset="100%" stop-color="teal"/>
</linearGradient>


<g transform="translate(0.000000,330.000000) scale(0.100000,-0.100000)"
fill="url(#linear-gradient)" stroke="none">
<path d="M1650 3212 c-118 -40 -174 -85 -277 -225 -36 -50 -100 -131 -142
-181 -117 -140 -111 -130 -57 -106 107 46 194 10 250 -104 28 -54 30 -69 34
-195 5 -160 -7 -220 -68 -349 -55 -115 -141 -237 -265 -374 -58 -65 -105 -120
-105 -123 0 -22 230 46 310 92 139 81 219 167 286 308 50 107 77 207 100 370
18 135 21 142 81 209 50 56 55 82 16 96 -56 21 -73 34 -84 67 -25 77 30 182
121 228 26 13 58 38 71 54 13 17 34 43 46 59 12 16 42 39 67 53 25 13 46 29
46 34 0 25 -35 55 -88 76 -81 31 -263 37 -342 11z m288 -55 c6 -5 12 -22 12
-37 0 -33 -65 -135 -109 -173 -60 -50 -121 -26 -106 42 4 20 -1 37 -20 65 -14
20 -25 43 -25 51 0 48 199 90 248 52z"/>
<path d="M1797 3113 c-20 -19 11 -73 41 -73 16 0 42 29 42 48 -1 16 -2 16 -14
0 -19 -25 -56 -24 -56 2 0 11 5 20 10 20 6 0 10 -7 10 -15 0 -22 17 -18 23 5
4 16 0 20 -22 20 -15 0 -31 -3 -34 -7z"/>
<path d="M2011 3031 c-40 -38 -71 -105 -71 -158 0 -35 8 -52 51 -108 28 -37
57 -82 65 -101 8 -19 18 -34 23 -34 11 0 63 83 82 130 20 52 16 157 -8 211
-41 92 -87 111 -142 60z"/>
<path d="M1875 2774 c-8 -66 4 -86 49 -82 42 4 45 30 7 74 -17 19 -31 41 -31
49 0 8 -4 15 -9 15 -5 0 -12 -25 -16 -56z"/>
<path d="M1183 2669 c-107 -41 -314 -299 -432 -536 -49 -99 -139 -368 -128
-380 4 -3 23 7 43 22 l37 29 -31 -46 c-59 -86 -102 -208 -118 -338 l-7 -55 22
19 c24 22 28 8 7 -32 -18 -35 -56 -151 -56 -170 0 -12 5 -10 23 6 37 35 39 26
8 -35 -38 -76 -85 -263 -63 -249 6 3 31 41 58 83 68 112 155 234 241 341 76
94 102 118 64 60 -152 -231 -233 -463 -286 -820 -28 -183 -14 -199 34 -41 18
59 46 132 62 163 l28 55 1 -40 c3 -212 36 -477 71 -570 22 -59 38 -78 57 -66
9 6 9 30 -3 112 -22 148 -30 475 -16 644 15 177 52 371 122 637 7 26 41 70
115 150 200 214 319 397 359 553 22 85 38 250 31 315 -10 84 -72 174 -139 199
-37 14 -42 14 -104 -10z"/>
<path d="M1413 1660 c-17 -4 -47 -17 -65 -28 l-33 -22 38 0 c21 0 54 -7 74
-15 33 -14 37 -14 48 2 12 16 14 16 40 -1 31 -20 40 -16 30 13 -11 36 -79 62
-132 51z"/>
</g>
</svg>
