<?xml version="1.0" encoding="UTF-8"?>
<!DOCTYPE svg PUBLIC "-//W3C//DTD SVG 1.1//EN" "http://www.w3.org/Graphics/SVG/1.1/DTD/svg11.dtd">
<svg xmlns="http://www.w3.org/2000/svg" version="1.1" width="46px" height="46px" style="shape-rendering:geometricPrecision; text-rendering:geometricPrecision; image-rendering:optimizeQuality; fill-rule:evenodd; clip-rule:evenodd" xmlns:xlink="http://www.w3.org/1999/xlink">
<g><path style="opacity:1" fill="#0e0e0e" d="M -0.5,-0.5 C 14.8333,-0.5 30.1667,-0.5 45.5,-0.5C 45.5,2.16667 45.5,4.83333 45.5,7.5C 30.1667,8.83333 14.8333,8.83333 -0.5,7.5C -0.5,4.83333 -0.5,2.16667 -0.5,-0.5 Z M 42.5,5.5 C 29.1667,5.5 15.8333,5.5 2.5,5.5C 2.5,4.5 2.5,3.5 2.5,2.5C 15.8333,2.5 29.1667,2.5 42.5,2.5C 42.5,3.5 42.5,4.5 42.5,5.5 Z"/></g>
<g><path style="opacity:0.337" fill="#474747" d="M 42.5,5.5 C 42.5,4.5 42.5,3.5 42.5,2.5C 29.1667,2.5 15.8333,2.5 2.5,2.5C 2.5,3.5 2.5,4.5 2.5,5.5C 1.56552,4.43236 1.23219,3.09903 1.5,1.5C 15.5,1.5 29.5,1.5 43.5,1.5C 43.7678,3.09903 43.4345,4.43236 42.5,5.5 Z M 42.5,5.5 C 29.1667,5.5 15.8333,5.5 2.5,5.5C 2.5,4.5 2.5,3.5 2.5,2.5C 15.8333,2.5 29.1667,2.5 42.5,2.5C 42.5,3.5 42.5,4.5 42.5,5.5 Z"/></g>
<g><path style="opacity:1" fill="#0d0d0d" d="M 45.5,12.5 C 45.5,15.1667 45.5,17.8333 45.5,20.5C 30.1667,20.5 14.8333,20.5 -0.5,20.5C -0.5,17.8333 -0.5,15.1667 -0.5,12.5C 14.8333,11.1667 30.1667,11.1667 45.5,12.5 Z M 2.5,14.5 C 15.8333,14.5 29.1667,14.5 42.5,14.5C 42.5,15.5 42.5,16.5 42.5,17.5C 29.1667,17.5 15.8333,17.5 2.5,17.5C 2.5,16.5 2.5,15.5 2.5,14.5 Z"/></g>
<g><path style="opacity:0.337" fill="#474747" d="M 2.5,14.5 C 2.5,15.5 2.5,16.5 2.5,17.5C 15.8333,17.5 29.1667,17.5 42.5,17.5C 42.5,16.5 42.5,15.5 42.5,14.5C 43.4345,15.5676 43.7678,16.901 43.5,18.5C 29.5,18.5 15.5,18.5 1.5,18.5C 1.23219,16.901 1.56552,15.5676 2.5,14.5 Z M 2.5,14.5 C 15.8333,14.5 29.1667,14.5 42.5,14.5C 42.5,15.5 42.5,16.5 42.5,17.5C 29.1667,17.5 15.8333,17.5 2.5,17.5C 2.5,16.5 2.5,15.5 2.5,14.5 Z"/></g>
<g><path style="opacity:1" fill="#0d0d0d" d="M -0.5,24.5 C 14.8333,24.5 30.1667,24.5 45.5,24.5C 45.5,27.1667 45.5,29.8333 45.5,32.5C 30.1667,33.8333 14.8333,33.8333 -0.5,32.5C -0.5,29.8333 -0.5,27.1667 -0.5,24.5 Z M 42.5,30.5 C 29.1667,30.5 15.8333,30.5 2.5,30.5C 2.5,29.5 2.5,28.5 2.5,27.5C 15.8333,27.5 29.1667,27.5 42.5,27.5C 42.5,28.5 42.5,29.5 42.5,30.5 Z"/></g>
<g><path style="opacity:0.337" fill="#474747" d="M 42.5,30.5 C 42.5,29.5 42.5,28.5 42.5,27.5C 29.1667,27.5 15.8333,27.5 2.5,27.5C 2.5,28.5 2.5,29.5 2.5,30.5C 1.56552,29.4324 1.23219,28.099 1.5,26.5C 15.5,26.5 29.5,26.5 43.5,26.5C 43.7678,28.099 43.4345,29.4324 42.5,30.5 Z M 42.5,30.5 C 29.1667,30.5 15.8333,30.5 2.5,30.5C 2.5,29.5 2.5,28.5 2.5,27.5C 15.8333,27.5 29.1667,27.5 42.5,27.5C 42.5,28.5 42.5,29.5 42.5,30.5 Z"/></g>
<g><path style="opacity:1" fill="#0e0e0e" d="M 45.5,37.5 C 45.5,40.1667 45.5,42.8333 45.5,45.5C 30.1667,45.5 14.8333,45.5 -0.5,45.5C -0.5,42.8333 -0.5,40.1667 -0.5,37.5C 14.8333,36.1667 30.1667,36.1667 45.5,37.5 Z M 2.5,39.5 C 15.8333,39.5 29.1667,39.5 42.5,39.5C 42.5,40.5 42.5,41.5 42.5,42.5C 29.1667,42.5 15.8333,42.5 2.5,42.5C 2.5,41.5 2.5,40.5 2.5,39.5 Z"/></g>
<g><path style="opacity:0.337" fill="#474747" d="M 2.5,39.5 C 2.5,40.5 2.5,41.5 2.5,42.5C 15.8333,42.5 29.1667,42.5 42.5,42.5C 42.5,41.5 42.5,40.5 42.5,39.5C 43.4345,40.5676 43.7678,41.901 43.5,43.5C 29.5,43.5 15.5,43.5 1.5,43.5C 1.23219,41.901 1.56552,40.5676 2.5,39.5 Z M 2.5,39.5 C 15.8333,39.5 29.1667,39.5 42.5,39.5C 42.5,40.5 42.5,41.5 42.5,42.5C 29.1667,42.5 15.8333,42.5 2.5,42.5C 2.5,41.5 2.5,40.5 2.5,39.5 Z"/></g>
</svg>
