<?xml version="1.0" standalone="no"?>
<!DOCTYPE svg PUBLIC "-//W3C//DTD SVG 20010904//EN"
 "http://www.w3.org/TR/2001/REC-SVG-20010904/DTD/svg10.dtd">
<svg version="1.0" xmlns="http://www.w3.org/2000/svg"
 width="83.000000pt" height="63.000000pt" viewBox="0 0 83.000000 63.000000"
 preserveAspectRatio="xMidYMid meet">

<g transform="translate(0.000000,63.000000) scale(0.100000,-0.100000)"
fill="#000000" stroke="none">
<path d="M0 590 c0 -44 26 -58 32 -17 3 19 9 22 48 22 l45 0 80 -212 80 -213
221 0 222 0 46 126 c58 159 62 173 45 179 -28 9 -561 86 -566 81 -22 -22 23
-34 268 -70 145 -21 265 -39 267 -41 1 -1 -17 -56 -40 -121 l-43 -119 -199 0
-198 0 -54 145 c-30 80 -66 175 -80 213 l-26 67 -74 0 -74 0 0 -40z"/>
<path d="M345 135 c-49 -48 -17 -135 49 -135 69 0 102 85 51 135 -31 32 -69
32 -100 0z m85 -30 c17 -20 4 -62 -21 -70 -15 -5 -28 -1 -42 14 -18 17 -19 24
-9 46 13 29 52 34 72 10z"/>
<path d="M565 135 c-49 -48 -17 -135 49 -135 69 0 102 85 51 135 -31 32 -69
32 -100 0z m90 -36 c12 -18 -4 -57 -26 -64 -22 -7 -59 18 -59 42 0 7 9 22 20
33 16 16 25 18 40 10 10 -5 22 -15 25 -21z"/>
</g>
</svg>
