<?xml version="1.0" standalone="no"?>
<!DOCTYPE svg PUBLIC "-//W3C//DTD SVG 20010904//EN"
 "http://www.w3.org/TR/2001/REC-SVG-20010904/DTD/svg10.dtd">
<svg version="1.0" xmlns="http://www.w3.org/2000/svg"
 width="46.000000pt" height="38.000000pt" viewBox="0 0 46.000000 38.000000"
 preserveAspectRatio="xMidYMid meet">

<g transform="translate(0.000000,38.000000) scale(0.100000,-0.100000)"
fill="#000000" stroke="none">
<path d="M374 367 c-2 -7 -3 -91 -2 -187 l3 -175 43 -3 42 -3 0 190 0 191 -40
0 c-24 0 -43 -5 -46 -13z m66 -177 c0 -163 -1 -170 -20 -170 -19 0 -20 7 -20
170 0 163 1 170 20 170 19 0 20 -7 20 -170z"/>
<path d="M124 327 c-2 -7 -3 -82 -2 -167 l3 -155 43 -3 42 -3 0 170 0 171 -40
0 c-24 0 -43 -5 -46 -13z m66 -162 c0 -138 -1 -145 -20 -145 -19 0 -20 7 -20
145 0 138 1 145 20 145 19 0 20 -7 20 -145z"/>
<path d="M250 105 l0 -106 43 3 42 3 0 100 0 100 -42 3 -43 3 0 -106z m60 0
c0 -78 -2 -85 -20 -85 -18 0 -20 7 -20 85 0 78 2 85 20 85 18 0 20 -7 20 -85z"/>
<path d="M0 75 l0 -76 43 3 42 3 0 70 0 70 -42 3 -43 3 0 -76z m60 -5 c0 -43
-3 -50 -20 -50 -17 0 -20 7 -20 50 0 43 3 50 20 50 17 0 20 -7 20 -50z"/>
</g>
</svg>
