<?xml version="1.0" standalone="no"?>
<!DOCTYPE svg PUBLIC "-//W3C//DTD SVG 20010904//EN"
 "http://www.w3.org/TR/2001/REC-SVG-20010904/DTD/svg10.dtd">
<svg version="1.0" xmlns="http://www.w3.org/2000/svg"
 width="46.000000pt" height="46.000000pt" viewBox="0 0 46.000000 46.000000"
 preserveAspectRatio="xMidYMid meet">

<g transform="translate(0.000000,46.000000) scale(0.100000,-0.100000)"
fill="#000000" stroke="none">
<path d="M60 395 c-61 -61 -64 -67 -51 -88 42 -68 213 -307 221 -307 9 0 217
291 227 318 4 8 -20 40 -58 78 l-63 64 -106 0 -106 0 -64 -65z m95 -5 c-24
-48 -27 -50 -67 -50 l-42 0 49 50 c27 28 57 50 67 50 17 0 16 -5 -7 -50z m120
0 l25 -50 -70 0 -70 0 25 50 c17 34 31 50 45 50 14 0 28 -16 45 -50z m90 0
l49 -50 -42 0 c-38 0 -43 3 -62 40 -39 77 -16 82 55 10z m-207 -182 c17 -56
30 -104 28 -105 -2 -3 -120 160 -140 195 -5 9 4 12 37 12 l44 0 31 -102z m142
95 c1 -15 -65 -233 -70 -233 -5 0 -71 218 -70 233 0 9 140 9 140 0z m114 -5
c-12 -21 -126 -182 -135 -193 -5 -5 -3 13 6 40 8 28 22 76 31 108 l17 57 44 0
c33 0 42 -3 37 -12z"/>
</g>
</svg>
