<?xml version="1.0" standalone="no"?>
<!DOCTYPE svg PUBLIC "-//W3C//DTD SVG 20010904//EN"
 "http://www.w3.org/TR/2001/REC-SVG-20010904/DTD/svg10.dtd">
<svg version="1.0" xmlns="http://www.w3.org/2000/svg"
 width="77.000000pt" height="67.000000pt" viewBox="0 0 77.000000 67.000000"
 preserveAspectRatio="xMidYMid meet">

<g transform="translate(0.000000,67.000000) scale(0.100000,-0.100000)"
fill="#000000" stroke="none">
<path d="M145 641 c-113 -52 -166 -188 -116 -296 11 -24 80 -101 173 -192 137
-136 158 -153 188 -153 30 0 51 17 188 152 166 165 192 202 192 283 0 168
-176 275 -328 199 l-52 -26 -52 26 c-63 31 -135 34 -193 7z m200 -69 l45 -32
43 30 c75 54 161 52 224 -3 61 -54 78 -122 48 -195 -18 -41 -291 -322 -314
-322 -23 0 -291 271 -312 315 -42 91 -10 178 86 230 47 25 126 15 180 -23z"/>
<path d="M159 511 c-17 -17 -29 -40 -29 -55 0 -36 17 -32 34 8 9 22 24 37 45
44 38 13 41 32 5 32 -15 0 -38 -12 -55 -29z"/>
</g>
</svg>
